# This file uses centimeters as units for non-parametric coordinates.

mtllib money.mtl
g default
v 0.309640 0.539317 -0.092595
v 0.226069 0.654342 -0.092595
v 0.102939 0.725432 -0.092595
v -0.038461 0.740293 -0.092595
v -0.173681 0.696358 -0.092595
v -0.279340 0.601222 -0.092595
v -0.337169 0.471335 -0.092595
v -0.337169 0.329156 -0.092595
v -0.279340 0.199270 -0.092595
v -0.173681 0.104134 -0.092595
v -0.038461 0.060198 -0.092595
v 0.102939 0.075060 -0.092595
v 0.226069 0.146149 -0.092595
v 0.309640 0.261174 -0.092595
v 0.339201 0.400246 -0.092595
v 0.316511 0.541558 -0.115040
v 0.231594 0.658437 -0.115040
v 0.106479 0.730671 -0.115040
v -0.037199 0.745773 -0.115040
v -0.174598 0.701129 -0.115040
v -0.281959 0.604460 -0.115040
v -0.340721 0.472480 -0.115040
v -0.340721 0.328011 -0.115040
v -0.281959 0.196031 -0.115040
v -0.174598 0.099362 -0.115040
v -0.037199 0.054719 -0.115040
v 0.106479 0.069820 -0.115040
v 0.231594 0.142055 -0.115040
v 0.316511 0.258933 -0.115040
v 0.346548 0.400246 -0.115040
v 0.365418 0.562940 -0.115044
v 0.267652 0.697504 -0.115044
v 0.123607 0.780668 -0.115044
v -0.041811 0.798054 -0.115044
v -0.200000 0.746656 -0.115044
v -0.323607 0.635360 -0.115044
v -0.391259 0.483410 -0.115044
v -0.391259 0.317081 -0.115044
v -0.323607 0.165132 -0.115044
v -0.200000 0.053836 -0.115044
v -0.041811 0.002437 -0.115044
v 0.123607 0.019823 -0.115044
v 0.267652 0.102988 -0.115044
v 0.365418 0.237551 -0.115044
v 0.400000 0.400246 -0.115044
v 0.365418 0.562940 0.115052
v 0.267652 0.697504 0.115052
v 0.123607 0.780668 0.115052
v -0.041811 0.798054 0.115052
v -0.200000 0.746656 0.115052
v -0.323607 0.635360 0.115052
v -0.391259 0.483410 0.115052
v -0.391259 0.317081 0.115052
v -0.323607 0.165132 0.115052
v -0.200000 0.053836 0.115052
v -0.041811 0.002437 0.115052
v 0.123607 0.019823 0.115052
v 0.267652 0.102988 0.115052
v 0.365418 0.237551 0.115052
v 0.400000 0.400246 0.115052
v 0.316511 0.541558 0.115033
v 0.231594 0.658437 0.115033
v 0.106479 0.730671 0.115033
v -0.037199 0.745773 0.115033
v -0.174598 0.701129 0.115033
v -0.281959 0.604460 0.115033
v -0.340721 0.472480 0.115033
v -0.340721 0.328011 0.115033
v -0.281959 0.196031 0.115033
v -0.174598 0.099362 0.115033
v -0.037199 0.054719 0.115033
v 0.106479 0.069820 0.115033
v 0.231594 0.142055 0.115033
v 0.316511 0.258933 0.115033
v 0.346548 0.400246 0.115033
v 0.309640 0.539317 0.092595
v 0.226069 0.654342 0.092595
v 0.102939 0.725432 0.092595
v -0.038461 0.740293 0.092595
v -0.173681 0.696358 0.092595
v -0.279340 0.601222 0.092595
v -0.337169 0.471335 0.092595
v -0.337169 0.329156 0.092595
v -0.279340 0.199270 0.092595
v -0.173681 0.104134 0.092595
v -0.038461 0.060198 0.092595
v 0.102939 0.075060 0.092595
v 0.226069 0.146149 0.092595
v 0.309640 0.261174 0.092595
v 0.339201 0.400246 0.092595
v 0.103577 0.782773 -0.074778
v -0.021782 0.795949 -0.074778
v -0.021782 0.795949 0.074785
v 0.103577 0.782773 0.074785
v 0.103532 0.809063 -0.071464
v -0.016272 0.821655 -0.071464
v -0.016272 0.821655 0.071471
v 0.103532 0.809063 0.071471
v 0.056698 0.797289 -0.036271
v 0.028080 0.802259 -0.034818
v 0.008980 0.806315 -0.013266
v 0.010587 0.807082 0.015762
v 0.031958 0.804110 0.035261
v 0.060576 0.799140 0.033809
v 0.079676 0.795084 0.012256
v 0.078069 0.794317 -0.016772
v 0.062062 0.821819 -0.037696
v 0.034153 0.829900 -0.036438
v 0.015762 0.837067 -0.015079
v 0.017662 0.839122 0.013868
v 0.038739 0.834862 0.033447
v 0.066648 0.826781 0.032189
v 0.085039 0.819614 0.010831
v 0.083140 0.817559 -0.018116
v 0.081770 0.865598 -0.045038
v 0.059072 0.883765 -0.045790
v 0.045892 0.901017 -0.026440
v 0.049950 0.907251 0.001675
v 0.068869 0.898813 0.022086
v 0.091567 0.880646 0.022838
v 0.104748 0.863393 0.003488
v 0.100689 0.857160 -0.024627
v 0.137791 0.892682 -0.070334
v 0.125773 0.918597 -0.075790
v 0.123273 0.943599 -0.061146
v 0.131755 0.953041 -0.034980
v 0.146251 0.941394 -0.012620
v 0.158268 0.915479 -0.007163
v 0.160768 0.890477 -0.021807
v 0.152286 0.881034 -0.047974
v 0.262852 0.895580 -0.129420
v 0.256552 0.922790 -0.137525
v 0.259769 0.949087 -0.125529
v 0.270620 0.959066 -0.100460
v 0.282747 0.946882 -0.077002
v 0.289047 0.919671 -0.068898
v 0.285830 0.893375 -0.080893
v 0.274980 0.883395 -0.105962
vt 0.290451 0.373362
vt 0.260776 0.332864
vt 0.217205 0.307971
vt 0.167303 0.302925
vt 0.119665 0.318571
vt 0.082488 0.352200
vt 0.062162 0.398014
vt 0.062176 0.448134
vt 0.082527 0.493938
vt 0.119723 0.527545
vt 0.167371 0.543164
vt 0.217267 0.538090
vt 0.260815 0.513182
vt 0.290499 0.472714
vt 0.301138 0.423644
vt 0.298350 0.370198
vt 0.266726 0.326921
vt 0.220326 0.300247
vt 0.167054 0.294671
vt 0.116044 0.311226
vt 0.076127 0.347132
vt 0.054264 0.396211
vt 0.054280 0.449942
vt 0.076169 0.499010
vt 0.116107 0.534893
vt 0.167128 0.551418
vt 0.220394 0.545808
vt 0.266753 0.519108
vt 0.298307 0.475942
vt 0.309658 0.423594
vt 0.316652 0.362208
vt 0.280063 0.312378
vt 0.226647 0.281711
vt 0.165343 0.275278
vt 0.106619 0.294312
vt 0.060648 0.335638
vt 0.035468 0.392146
vt 0.035486 0.454018
vt 0.060697 0.510513
vt 0.106691 0.551812
vt 0.165432 0.570812
vt 0.226732 0.564331
vt 0.280067 0.533599
vt 0.316408 0.483952
vt 0.329650 0.423614
vt 0.357676 0.243206
vt 0.374343 0.243206
vt 0.391010 0.243206
vt 0.407676 0.243206
vt 0.424343 0.243206
vt 0.441010 0.243206
vt 0.457676 0.243206
vt 0.474343 0.243206
vt 0.491010 0.243206
vt 0.507676 0.243206
vt 0.524343 0.243206
vt 0.541010 0.243206
vt 0.557676 0.243206
vt 0.574343 0.243206
vt 0.591010 0.243206
vt 0.607676 0.243206
vt 0.357676 0.619145
vt 0.374343 0.619145
vt 0.391010 0.619145
vt 0.407676 0.619145
vt 0.424343 0.619145
vt 0.441010 0.619145
vt 0.457676 0.619145
vt 0.474343 0.619145
vt 0.491010 0.619145
vt 0.507676 0.619145
vt 0.524343 0.619145
vt 0.541010 0.619145
vt 0.557676 0.619145
vt 0.574343 0.619145
vt 0.591010 0.619145
vt 0.607676 0.619145
vt 0.925930 0.368281
vt 0.888941 0.320117
vt 0.836141 0.289985
vt 0.775384 0.283626
vt 0.717131 0.302542
vt 0.671550 0.343585
vt 0.646616 0.399675
vt 0.646687 0.461062
vt 0.671746 0.517092
vt 0.717414 0.558034
vt 0.775714 0.576836
vt 0.836526 0.570337
vt 0.889340 0.539807
vt 0.925256 0.490840
vt 0.939438 0.431834
vt 0.907735 0.377248
vt 0.875954 0.334646
vt 0.829925 0.308338
vt 0.777091 0.302854
vt 0.726494 0.319317
vt 0.686917 0.354977
vt 0.665269 0.403692
vt 0.665330 0.457003
vt 0.687087 0.505668
vt 0.726742 0.541239
vt 0.777379 0.557592
vt 0.830221 0.551978
vt 0.876173 0.525464
vt 0.907466 0.482731
vt 0.919147 0.430912
vt 0.899894 0.380836
vt 0.870147 0.340600
vt 0.826855 0.315987
vt 0.777343 0.311036
vt 0.730090 0.326600
vt 0.693231 0.359998
vt 0.673103 0.405474
vt 0.673160 0.455203
vt 0.693390 0.500632
vt 0.730323 0.533948
vt 0.777612 0.549405
vt 0.827114 0.544331
vt 0.870302 0.519596
vt 0.899781 0.479448
vt 0.910508 0.430566
vt 0.391010 0.243206
vt 0.407676 0.243206
vt 0.407676 0.619145
vt 0.391010 0.619145
vt 0.391010 0.243206
vt 0.407676 0.243206
vt 0.407676 0.619145
vt 0.391010 0.619145
vt 0.345996 0.669675
vt 0.382204 0.669675
vt 0.382204 0.744512
vt 0.345996 0.744512
vt 0.418412 0.669675
vt 0.418412 0.744512
vt 0.454619 0.669675
vt 0.454619 0.744512
vt 0.490827 0.669675
vt 0.490827 0.744512
vt 0.527035 0.669675
vt 0.527035 0.744512
vt 0.563243 0.669675
vt 0.563243 0.744512
vt 0.599450 0.669675
vt 0.599450 0.744512
vt 0.635658 0.669675
vt 0.635658 0.744512
vt 0.382204 0.819350
vt 0.345996 0.819350
vt 0.418412 0.819350
vt 0.454619 0.819350
vt 0.490827 0.819350
vt 0.527035 0.819350
vt 0.563243 0.819350
vt 0.599450 0.819350
vt 0.635658 0.819350
vt 0.382204 0.894187
vt 0.345996 0.894187
vt 0.418412 0.894187
vt 0.454619 0.894187
vt 0.490827 0.894187
vt 0.527035 0.894187
vt 0.563243 0.894187
vt 0.599450 0.894187
vt 0.635658 0.894187
vt 0.382204 0.969025
vt 0.345996 0.969025
vt 0.418412 0.969025
vt 0.454619 0.969025
vt 0.490827 0.969025
vt 0.527035 0.969025
vt 0.563243 0.969025
vt 0.599450 0.969025
vt 0.635658 0.969025
vt 0.273327 0.781068
vt 0.303509 0.853934
vt 0.273327 0.926801
vt 0.200460 0.956983
vt 0.127594 0.926801
vt 0.097412 0.853934
vt 0.127594 0.781068
vt 0.200460 0.750886
vn -0.693899 -0.309293 -0.650263
vn -0.513708 -0.571365 -0.640036
vn -0.394995 -0.439327 -0.806828
vn -0.533030 -0.237588 -0.812054
vn -0.240722 -0.743017 -0.624482
vn -0.185372 -0.572175 -0.798907
vn 0.083782 -0.791115 -0.605902
vn 0.064639 -0.610355 -0.789487
vn 0.405067 -0.700622 -0.587409
vn 0.313119 -0.541585 -0.780155
vn 0.663509 -0.481701 -0.572468
vn 0.513728 -0.372961 -0.772647
vn 0.807678 -0.171577 -0.564108
vn 0.625931 -0.132968 -0.768459
vn 0.807678 0.171577 -0.564108
vn 0.625932 0.132968 -0.768459
vn 0.663509 0.481701 -0.572468
vn 0.513728 0.372961 -0.772647
vn 0.405067 0.700622 -0.587410
vn 0.313119 0.541585 -0.780155
vn 0.083783 0.791116 -0.605902
vn 0.064639 0.610355 -0.789486
vn -0.240721 0.743018 -0.624482
vn -0.185372 0.572176 -0.798907
vn -0.513708 0.571365 -0.640036
vn -0.394994 0.439327 -0.806828
vn -0.693900 0.309293 -0.650262
vn -0.533030 0.237588 -0.812054
vn -0.756654 -0.000000 -0.653816
vn -0.581044 -0.000000 -0.813873
vn 0.467873 0.519625 -0.714902
vn 0.638774 0.284400 -0.714902
vn 0.199320 0.802588 -0.562249
vn -0.028096 0.826491 -0.562249
vn -0.349612 0.605546 -0.714903
vn -0.565684 0.410994 -0.714903
vn -0.683944 0.145377 -0.714903
vn -0.683944 -0.145377 -0.714903
vn -0.565684 -0.410993 -0.714903
vn -0.349612 -0.605546 -0.714903
vn -0.073089 -0.695394 -0.714902
vn 0.216072 -0.665002 -0.714902
vn 0.467873 -0.519625 -0.714902
vn 0.638774 -0.284400 -0.714902
vn 0.699225 0.000000 -0.714902
vn 0.467806 0.519551 0.715000
vn 0.638682 0.284360 0.714999
vn 0.199298 0.802543 0.562321
vn 0.598213 0.600168 -0.530981
vn -0.460359 0.711427 -0.530981
vn -0.460359 0.711428 0.530981
vn 0.598213 0.600168 0.530980
vn -0.349561 0.605457 0.715002
vn -0.028083 0.826442 0.562321
vn -0.565601 0.410933 0.715003
vn -0.683843 0.145356 0.715004
vn -0.683843 -0.145355 0.715004
vn -0.565601 -0.410933 0.715003
vn -0.349561 -0.605457 0.715003
vn -0.073078 -0.695293 0.715002
vn 0.216041 -0.664906 0.715001
vn 0.467806 -0.519551 0.715000
vn 0.638682 -0.284360 0.714999
vn 0.699125 0.000000 0.714999
vn -0.395046 -0.439385 0.806771
vn -0.533099 -0.237619 0.811999
vn -0.185397 -0.572252 0.798846
vn 0.064648 -0.610438 0.789421
vn 0.313163 -0.541660 0.780085
vn 0.513800 -0.373014 0.772574
vn 0.626020 -0.132987 0.768383
vn 0.626020 0.132987 0.768383
vn 0.513800 0.373014 0.772574
vn 0.313163 0.541660 0.780086
vn 0.064649 0.610438 0.789421
vn -0.185397 0.572252 0.798846
vn -0.395046 0.439385 0.806771
vn -0.533099 0.237619 0.811999
vn -0.581118 -0.000000 0.813819
vn -0.513680 -0.571334 0.640086
vn -0.693859 -0.309275 0.650315
vn -0.240710 -0.742983 0.624529
vn 0.083779 -0.791083 0.605944
vn 0.405053 -0.700598 0.587448
vn 0.663490 -0.481687 0.572503
vn 0.807656 -0.171573 0.564141
vn 0.807656 0.171573 0.564141
vn 0.663490 0.481687 0.572502
vn 0.405053 0.700597 0.587448
vn 0.083780 0.791083 0.605945
vn -0.240709 0.742982 0.624529
vn -0.513680 0.571334 0.640086
vn -0.693859 0.309275 0.650315
vn -0.756608 -0.000000 0.653869
vn -0.286511 0.881136 -0.376180
vn 0.463449 0.802311 -0.376180
vn -0.286511 0.881136 0.376181
vn 0.463449 0.802311 0.376180
vn 0.319402 -0.124405 -0.939418
vn -0.427549 0.041229 -0.903052
vn -0.427142 0.041978 -0.903210
vn 0.299008 -0.202148 -0.932593
vn -0.923422 0.183756 -0.336935
vn -0.900264 0.266920 -0.343916
vn -0.877998 0.218887 0.425685
vn -0.845037 0.336649 0.415428
vn -0.319098 0.125764 0.939340
vn -0.296098 0.208943 0.932024
vn 0.427639 -0.040836 0.903027
vn 0.428047 -0.040088 0.902867
vn 0.923723 -0.182395 0.336849
vn 0.902789 -0.260088 0.342531
vn 0.878509 -0.216560 -0.425821
vn 0.849041 -0.324690 -0.416780
vn -0.429237 0.040448 -0.902286
vn 0.118793 -0.468646 -0.875362
vn -0.743067 0.522211 -0.418505
vn -0.627465 0.705644 0.329172
vn -0.129823 0.463363 0.876607
vn 0.425952 -0.041617 0.903788
vn 0.734924 -0.527771 0.425845
vn 0.614602 -0.719361 -0.323704
vn -0.430404 0.039454 -0.901774
vn -0.174453 -0.662887 -0.728112
vn -0.449517 0.713114 -0.537963
vn -0.210017 0.967126 0.143390
vn 0.155337 0.655071 0.739427
vn 0.424782 -0.042611 0.904292
vn 0.428378 -0.720735 0.545007
vn 0.174624 -0.976404 -0.127052
vn 0.053477 0.075355 -0.995722
vn 0.169758 -0.572361 -0.802238
vn 0.153762 0.680944 -0.716012
vn 0.406168 0.901173 -0.151375
vn 0.674384 0.630984 0.383491
vn 0.805532 0.003187 0.592544
vn 0.707141 -0.623929 0.332662
vn 0.439926 -0.863245 -0.247533
s 1
g polySurface117
usemtl blinn3SG
f 1/1/1 2/2/2 17/17/3 16/16/4
f 2/2/2 3/3/5 18/18/6 17/17/3
f 3/3/5 4/4/7 19/19/8 18/18/6
f 4/4/7 5/5/9 20/20/10 19/19/8
f 5/5/9 6/6/11 21/21/12 20/20/10
f 6/6/11 7/7/13 22/22/14 21/21/12
f 7/7/13 8/8/15 23/23/16 22/22/14
f 8/8/15 9/9/17 24/24/18 23/23/16
f 9/9/17 10/10/19 25/25/20 24/24/18
f 10/10/19 11/11/21 26/26/22 25/25/20
f 11/11/21 12/12/23 27/27/24 26/26/22
f 12/12/23 13/13/25 28/28/26 27/27/24
f 13/13/25 14/14/27 29/29/28 28/28/26
f 14/14/27 15/15/29 30/30/30 29/29/28
f 15/15/29 1/1/1 16/16/4 30/30/30
f 16/16/4 17/17/3 32/32/31 31/31/32
f 17/17/3 18/18/6 33/33/33 32/32/31
f 18/18/6 19/19/8 34/34/34 33/33/33
f 19/19/8 20/20/10 35/35/35 34/34/34
f 20/20/10 21/21/12 36/36/36 35/35/35
f 21/21/12 22/22/14 37/37/37 36/36/36
f 22/22/14 23/23/16 38/38/38 37/37/37
f 23/23/16 24/24/18 39/39/39 38/38/38
f 24/24/18 25/25/20 40/40/40 39/39/39
f 25/25/20 26/26/22 41/41/41 40/40/40
f 26/26/22 27/27/24 42/42/42 41/41/41
f 27/27/24 28/28/26 43/43/43 42/42/42
f 28/28/26 29/29/28 44/44/44 43/43/43
f 29/29/28 30/30/30 45/45/45 44/44/44
f 30/30/30 16/16/4 31/31/32 45/45/45
f 31/46/32 32/47/31 47/63/46 46/62/47
f 32/47/31 33/48/33 48/64/48 47/63/46
f 95/127/49 96/128/50 97/129/51 98/130/52
f 34/49/34 35/50/35 50/66/53 49/65/54
f 35/50/35 36/51/36 51/67/55 50/66/53
f 36/51/36 37/52/37 52/68/56 51/67/55
f 37/52/37 38/53/38 53/69/57 52/68/56
f 38/53/38 39/54/39 54/70/58 53/69/57
f 39/54/39 40/55/40 55/71/59 54/70/58
f 40/55/40 41/56/41 56/72/60 55/71/59
f 41/56/41 42/57/42 57/73/61 56/72/60
f 42/57/42 43/58/43 58/74/62 57/73/61
f 43/58/43 44/59/44 59/75/63 58/74/62
f 44/59/44 45/60/45 60/76/64 59/75/63
f 45/60/45 31/61/32 46/77/47 60/76/64
f 46/91/47 47/90/46 62/105/65 61/106/66
f 47/90/46 48/89/48 63/104/67 62/105/65
f 48/89/48 49/88/54 64/103/68 63/104/67
f 49/88/54 50/87/53 65/102/69 64/103/68
f 50/87/53 51/86/55 66/101/70 65/102/69
f 51/86/55 52/85/56 67/100/71 66/101/70
f 52/85/56 53/84/57 68/99/72 67/100/71
f 53/84/57 54/83/58 69/98/73 68/99/72
f 54/83/58 55/82/59 70/97/74 69/98/73
f 55/82/59 56/81/60 71/96/75 70/97/74
f 56/81/60 57/80/61 72/95/76 71/96/75
f 57/80/61 58/79/62 73/94/77 72/95/76
f 58/79/62 59/78/63 74/93/78 73/94/77
f 59/78/63 60/92/64 75/107/79 74/93/78
f 60/92/64 46/91/47 61/106/66 75/107/79
f 61/106/66 62/105/65 77/120/80 76/121/81
f 62/105/65 63/104/67 78/119/82 77/120/80
f 63/104/67 64/103/68 79/118/83 78/119/82
f 64/103/68 65/102/69 80/117/84 79/118/83
f 65/102/69 66/101/70 81/116/85 80/117/84
f 66/101/70 67/100/71 82/115/86 81/116/85
f 67/100/71 68/99/72 83/114/87 82/115/86
f 68/99/72 69/98/73 84/113/88 83/114/87
f 69/98/73 70/97/74 85/112/89 84/113/88
f 70/97/74 71/96/75 86/111/90 85/112/89
f 71/96/75 72/95/76 87/110/91 86/111/90
f 72/95/76 73/94/77 88/109/92 87/110/91
f 73/94/77 74/93/78 89/108/93 88/109/92
f 74/93/78 75/107/79 90/122/94 89/108/93
f 75/107/79 61/106/66 76/121/81 90/122/94
f 1/1/1 15/15/29 14/14/27 13/13/25 12/12/23 11/11/21 10/10/19 9/9/17 8/8/15 7/7/13 6/6/11 5/5/9 4/4/7 3/3/5 2/2/2
f 79/118/83 80/117/84 81/116/85 82/115/86 83/114/87 84/113/88 85/112/89 86/111/90 87/110/91 88/109/92 89/108/93 90/122/94 76/121/81 77/120/80 78/119/82
f 33/48/33 34/49/34 92/124/95 91/123/96
f 34/49/34 49/65/54 93/125/97 92/124/95
f 49/65/54 48/64/48 94/126/98 93/125/97
f 48/64/48 33/48/33 91/123/96 94/126/98
f 91/123/96 92/124/95 96/128/50 95/127/49
f 92/124/95 93/125/97 97/129/51 96/128/50
f 93/125/97 94/126/98 98/130/52 97/129/51
f 94/126/98 91/123/96 95/127/49 98/130/52
s 3
usemtl blinn2SG
f 99/131/99 100/132/100 108/133/101 107/134/102
f 100/132/100 101/135/103 109/136/104 108/133/101
f 101/135/103 102/137/105 110/138/106 109/136/104
f 102/137/105 103/139/107 111/140/108 110/138/106
f 103/139/107 104/141/109 112/142/110 111/140/108
f 104/141/109 105/143/111 113/144/112 112/142/110
f 105/143/111 106/145/113 114/146/114 113/144/112
f 106/145/113 99/147/99 107/148/102 114/146/114
f 107/134/102 108/133/101 116/149/115 115/150/116
f 108/133/101 109/136/104 117/151/117 116/149/115
f 109/136/104 110/138/106 118/152/118 117/151/117
f 110/138/106 111/140/108 119/153/119 118/152/118
f 111/140/108 112/142/110 120/154/120 119/153/119
f 112/142/110 113/144/112 121/155/121 120/154/120
f 113/144/112 114/146/114 122/156/122 121/155/121
f 114/146/114 107/148/102 115/157/116 122/156/122
f 115/150/116 116/149/115 124/158/123 123/159/124
f 116/149/115 117/151/117 125/160/125 124/158/123
f 117/151/117 118/152/118 126/161/126 125/160/125
f 118/152/118 119/153/119 127/162/127 126/161/126
f 119/153/119 120/154/120 128/163/128 127/162/127
f 120/154/120 121/155/121 129/164/129 128/163/128
f 121/155/121 122/156/122 130/165/130 129/164/129
f 122/156/122 115/157/116 123/166/124 130/165/130
f 123/159/124 124/158/123 132/167/131 131/168/132
f 124/158/123 125/160/125 133/169/133 132/167/131
f 125/160/125 126/161/126 134/170/134 133/169/133
f 126/161/126 127/162/127 135/171/135 134/170/134
f 127/162/127 128/163/128 136/172/136 135/171/135
f 128/163/128 129/164/129 137/173/137 136/172/136
f 129/164/129 130/165/130 138/174/138 137/173/137
f 130/165/130 123/166/124 131/175/132 138/174/138
f 137/176/137 138/177/138 131/178/132 132/179/131 133/180/133 134/181/134 135/182/135 136/183/136
